<?xml version="1.0" encoding="utf-8" standalone="no"?>
<!DOCTYPE svg PUBLIC "-//W3C//DTD SVG 1.1//EN"
  "http://www.w3.org/Graphics/SVG/1.1/DTD/svg11.dtd">
<svg xmlns:xlink="http://www.w3.org/1999/xlink" width="416.423622pt" height="193.379528pt" viewBox="0 0 416.423622 193.379528" xmlns="http://www.w3.org/2000/svg" version="1.1" role="img" aria-labelledby="figure-title figure-desc">
<title id="figure-title">Correction-aware authoritative-state admission workflow</title>
<desc id="figure-desc">A persisted AI candidate enters a candidate-bound human decision. Accept preserves the candidate value, Correction retains the candidate while authorizing a distinct value, and Reject stops admission. A trusted transaction checks five information classes and policy, performs one version compare-and-swap, and either commits a complete authoritative successor with total source attribution or leaves state unchanged.</desc>
 <metadata>
  <rdf:RDF xmlns:dc="http://purl.org/dc/elements/1.1/" xmlns:cc="http://creativecommons.org/ns#" xmlns:rdf="http://www.w3.org/1999/02/22-rdf-syntax-ns#">
   <cc:Work>
    <dc:type rdf:resource="http://purl.org/dc/dcmitype/StillImage"/>
    <dc:date>2026-09-05T20:59:40.702998</dc:date>
    <dc:format>image/svg+xml</dc:format>
    <dc:creator>
     <cc:Agent>
      <dc:title>Matplotlib v3.10.8, https://matplotlib.org/</dc:title>
     </cc:Agent>
    </dc:creator>
   </cc:Work>
  </rdf:RDF>
 </metadata>
 <defs>
  <style type="text/css">*{stroke-linejoin: round; stroke-linecap: butt}</style>
 </defs>
 <g id="figure_1">
  <g id="patch_1">
   <path d="M 0 193.379528 
L 416.423622 193.379528 
L 416.423622 0 
L 0 0 
z
" style="fill: #ffffff"/>
  </g>
  <g id="axes_1">
   <g id="patch_2">
    <path d="M 17.250591 118.525266 
L 93.635079 118.525266 
Q 98.459362 118.525266 98.459362 116.377512 
L 98.459362 46.575496 
Q 98.459362 44.427742 93.635079 44.427742 
L 17.250591 44.427742 
Q 12.426307 44.427742 12.426307 46.575496 
L 12.426307 116.377512 
Q 12.426307 118.525266 17.250591 118.525266 
z
" style="fill: #eaf2f8"/>
   </g>
   <g id="patch_3">
    <path d="M 109.716024 130.695874 
L 202.181457 130.695874 
Q 206.201693 130.695874 206.201693 128.906079 
L 206.201693 39.416315 
Q 206.201693 37.62652 202.181457 37.62652 
L 109.716024 37.62652 
Q 105.695787 37.62652 105.695787 39.416315 
L 105.695787 128.906079 
Q 105.695787 130.695874 109.716024 130.695874 
z
" style="fill: #f3eef7"/>
   </g>
   <g id="patch_4">
    <path d="M 118.962567 67.516101 
L 192.934913 67.516101 
Q 197.759197 67.516101 197.759197 65.368346 
L 197.759197 51.944882 
Q 197.759197 49.797128 192.934913 49.797128 
L 118.962567 49.797128 
Q 114.138283 49.797128 114.138283 51.944882 
L 114.138283 65.368346 
Q 114.138283 67.516101 118.962567 67.516101 
z
" style="fill: #ffffff"/>
   </g>
   <g id="patch_5">
    <path d="M 116.550425 101.522211 
L 195.347055 101.522211 
Q 200.171339 101.522211 200.171339 99.374457 
L 200.171339 75.21222 
Q 200.171339 73.064466 195.347055 73.064466 
L 116.550425 73.064466 
Q 111.726142 73.064466 111.726142 75.21222 
L 111.726142 99.374457 
Q 111.726142 101.522211 116.550425 101.522211 
z
" style="fill: #e9dff0"/>
   </g>
   <g id="patch_6">
    <path d="M 118.962567 122.999754 
L 192.934913 122.999754 
Q 197.759197 122.999754 197.759197 120.852 
L 197.759197 109.218331 
Q 197.759197 107.070576 192.934913 107.070576 
L 118.962567 107.070576 
Q 114.138283 107.070576 114.138283 109.218331 
L 114.138283 120.852 
Q 114.138283 122.999754 118.962567 122.999754 
z
" style="fill: #ffffff"/>
   </g>
   <g id="patch_7">
    <path d="M 220.27252 127.474243 
L 320.778425 127.474243 
Q 325.602709 127.474243 325.602709 125.326488 
L 325.602709 42.995906 
Q 325.602709 40.848151 320.778425 40.848151 
L 220.27252 40.848151 
Q 215.448236 40.848151 215.448236 42.995906 
L 215.448236 125.326488 
Q 215.448236 127.474243 220.27252 127.474243 
z
" style="fill: #fdf2e9"/>
   </g>
   <g id="patch_8">
    <path d="M 230.32311 125.684447 
L 310.727835 125.684447 
Q 315.552118 125.684447 315.552118 123.536693 
L 315.552118 113.692819 
Q 315.552118 111.545065 310.727835 111.545065 
L 230.32311 111.545065 
Q 225.498827 111.545065 225.498827 113.692819 
L 225.498827 123.536693 
Q 225.498827 125.684447 230.32311 125.684447 
z
" style="fill: #ffffff"/>
   </g>
   <g id="patch_9">
    <path d="M 338.869488 97.94262 
L 399.173031 97.94262 
Q 403.997315 97.94262 403.997315 95.794866 
L 403.997315 46.575496 
Q 403.997315 44.427742 399.173031 44.427742 
L 338.869488 44.427742 
Q 334.045205 44.427742 334.045205 46.575496 
L 334.045205 95.794866 
Q 334.045205 97.94262 338.869488 97.94262 
z
" style="fill: #eaf4ea"/>
   </g>
   <g id="patch_10">
    <path d="M 338.869488 118.525266 
L 399.173031 118.525266 
Q 403.997315 118.525266 403.997315 116.377512 
L 403.997315 102.954047 
Q 403.997315 100.806293 399.173031 100.806293 
L 338.869488 100.806293 
Q 334.045205 100.806293 334.045205 102.954047 
L 334.045205 116.377512 
Q 334.045205 118.525266 338.869488 118.525266 
z
" style="fill: #ffffff"/>
   </g>
   <g id="patch_11">
    <path d="M 95.633419 68.947937 
Q 101.675943 68.947937 106.376826 68.947937 
" style="fill: none; stroke: #2166ac; stroke-width: 1.2; stroke-linecap: round"/>
    <path d="M 102.776826 67.147937 
L 106.376826 68.947937 
L 102.776826 70.747937 
z
" style="fill: #2166ac; stroke: #2166ac; stroke-width: 1.2; stroke-linecap: round"/>
   </g>
   <g id="patch_12">
    <path d="M 204.182251 68.947937 
Q 211.227636 68.947937 216.819577 68.947937 
" style="fill: none; stroke: #762a83; stroke-width: 1.3; stroke-linecap: round"/>
    <path d="M 213.219577 67.147937 
L 216.819577 68.947937 
L 213.219577 70.747937 
z
" style="fill: #762a83; stroke: #762a83; stroke-width: 1.3; stroke-linecap: round"/>
   </g>
   <g id="patch_13">
    <path d="M 322.779219 68.947937 
Q 329.824604 68.947937 335.304742 68.947937 
" style="fill: none; stroke: #1b7837; stroke-width: 1.4; stroke-linecap: round"/>
    <path d="M 331.704742 67.147937 
L 335.304742 68.947937 
L 331.704742 70.747937 
z
" style="fill: #1b7837; stroke: #1b7837; stroke-width: 1.4; stroke-linecap: round"/>
   </g>
   <g id="patch_14">
    <path d="M 109.716024 174.187899 
L 399.173031 174.187899 
Q 402.38922 174.187899 402.38922 172.756063 
L 402.38922 153.963213 
Q 402.38922 152.531376 399.173031 152.531376 
L 109.716024 152.531376 
Q 106.499835 152.531376 106.499835 153.963213 
L 106.499835 172.756063 
Q 106.499835 174.187899 109.716024 174.187899 
z
" style="fill: #fae9ec"/>
   </g>
   <g id="patch_15">
    <path d="M 155.94874 130.908784 
Q 155.94874 140.989044 155.94874 149.951271 
" style="fill: none; stroke-dasharray: 3.7,1.6; stroke-dashoffset: 0; stroke: #b2182b; stroke-linecap: round"/>
    <path d="M 157.74874 146.351271 
L 155.94874 149.951271 
L 154.14874 146.351271 
z
" style="fill: #b2182b; stroke-dasharray: 3.7,1.6; stroke-dashoffset: 0; stroke: #b2182b; stroke-linecap: round"/>
   </g>
   <g id="patch_16">
    <path d="M 270.525472 127.327882 
Q 270.525472 139.197326 270.525472 149.948736 
" style="fill: none; stroke-dasharray: 3.7,1.6; stroke-dashoffset: 0; stroke: #b2182b; stroke-linecap: round"/>
    <path d="M 272.325472 146.348736 
L 270.525472 149.948736 
L 268.725472 146.348736 
z
" style="fill: #b2182b; stroke-dasharray: 3.7,1.6; stroke-dashoffset: 0; stroke: #b2182b; stroke-linecap: round"/>
   </g>
   <g id="line2d_1">
    <path d="M 17.250591 27.782646 
L 93.635079 27.782646 
" clip-path="url(#pf3ccc7dcc6)" style="fill: none; stroke: #2166ac; stroke-width: 1.1; stroke-linecap: square"/>
   </g>
   <g id="line2d_2">
    <path d="M 109.716024 27.782646 
L 202.181457 27.782646 
" clip-path="url(#pf3ccc7dcc6)" style="fill: none; stroke: #762a83; stroke-width: 1.1; stroke-linecap: square"/>
   </g>
   <g id="line2d_3">
    <path d="M 220.27252 27.782646 
L 320.778425 27.782646 
" clip-path="url(#pf3ccc7dcc6)" style="fill: none; stroke: #b35806; stroke-width: 1.1; stroke-linecap: square"/>
   </g>
   <g id="line2d_4">
    <path d="M 338.869488 27.782646 
L 399.173031 27.782646 
" clip-path="url(#pf3ccc7dcc6)" style="fill: none; stroke: #1b7837; stroke-width: 1.1; stroke-linecap: square"/>
   </g>
   <g id="text_1">
    <text style="font-weight: 700; font-size: 7px; font-family: 'Arial', 'Helvetica', 'Liberation Sans', sans-serif; text-anchor: middle; fill: #2166ac" x="55.442835" y="22.437996" transform="rotate(-0 55.442835 22.437996)">1 · AI candidate</text>
   </g>
   <g id="text_2">
    <text style="font-weight: 700; font-size: 7px; font-family: 'Arial', 'Helvetica', 'Liberation Sans', sans-serif; text-anchor: middle; fill: #762a83" x="155.94874" y="22.437996" transform="rotate(-0 155.94874 22.437996)">2 · Human decision</text>
   </g>
   <g id="text_3">
    <text style="font-weight: 700; font-size: 7px; font-family: 'Arial', 'Helvetica', 'Liberation Sans', sans-serif; text-anchor: middle; fill: #b35806" x="270.525472" y="22.402449" transform="rotate(-0 270.525472 22.402449)">3 · Admission gate</text>
   </g>
   <g id="text_4">
    <text style="font-weight: 700; font-size: 7px; font-family: 'Arial', 'Helvetica', 'Liberation Sans', sans-serif; text-anchor: middle; fill: #1b7837" x="369.02126" y="22.437996" transform="rotate(-0 369.02126 22.437996)">4 · Successor</text>
   </g>
   <g id="text_5">
    <text style="font-weight: 700; font-size: 6px; font-family: 'Arial', 'Helvetica', 'Liberation Sans', sans-serif; text-anchor: middle; fill: #222222" x="55.442835" y="64.274122" transform="rotate(-0 55.442835 64.274122)">Candidate certificate c_i</text>
   </g>
   <g id="text_6">
    <text style="font-size: 5.8px; font-family: 'Arial', 'Helvetica', 'Liberation Sans', sans-serif; fill: #222222" transform="translate(25.142366 74.701463)">record · field · evidence</text>
    <text style="font-size: 5.8px; font-family: 'Arial', 'Helvetica', 'Liberation Sans', sans-serif; fill: #222222" transform="translate(32.072007 80.628474)">producer · context</text>
    <text style="font-size: 5.8px; font-family: 'Arial', 'Helvetica', 'Liberation Sans', sans-serif; fill: #222222" transform="translate(55.442835 86.555485)"/>
    <text style="font-size: 5.8px; font-family: 'Arial', 'Helvetica', 'Liberation Sans', sans-serif; fill: #222222" transform="translate(29.81046 92.482496)">candidate value x_c</text>
    <text style="font-size: 5.8px; font-family: 'Arial', 'Helvetica', 'Liberation Sans', sans-serif; fill: #222222" transform="translate(26.107975 98.409507)">expected pre-version v</text>
   </g>
   <g id="text_7">
    <text style="font-size: 5.3px; font-family: 'Arial', 'Helvetica', 'Liberation Sans', sans-serif; text-anchor: middle; fill: #4d4d4d" x="55.442835" y="131.171109" transform="rotate(-0 55.442835 131.171109)">non-authoritative · no direct write port</text>
   </g>
   <g id="text_8">
    <text style="font-size: 5.2px; font-family: 'Arial', 'Helvetica', 'Liberation Sans', sans-serif; text-anchor: middle; fill: #4d4d4d" x="155.94874" y="47.02488" transform="rotate(-0 155.94874 47.02488)">bound to c_i + context</text>
   </g>
   <g id="text_9">
    <text style="font-weight: 700; font-size: 5.9px; font-family: 'Arial', 'Helvetica', 'Liberation Sans', sans-serif; text-anchor: middle; fill: #222222" x="155.94874" y="60.184622" transform="rotate(-0 155.94874 60.184622)">Accept · x_a = x_c</text>
   </g>
   <g id="text_10">
    <text style="font-weight: 700; font-size: 6px; font-family: 'Arial', 'Helvetica', 'Liberation Sans', sans-serif; fill: #222222" transform="translate(140.780928 82.71405)">Correction</text>
    <text style="font-weight: 700; font-size: 6px; font-family: 'Arial', 'Helvetica', 'Liberation Sans', sans-serif; fill: #222222" transform="translate(142.625459 88.857487)">x_a ≠ x_c</text>
    <text style="font-weight: 700; font-size: 6px; font-family: 'Arial', 'Helvetica', 'Liberation Sans', sans-serif; fill: #222222" transform="translate(129.443271 94.983253)">candidate retained</text>
   </g>
   <g id="text_11">
    <text style="font-weight: 700; font-size: 5.9px; font-family: 'Arial', 'Helvetica', 'Liberation Sans', sans-serif; text-anchor: middle; fill: #222222" x="155.94874" y="116.525837" transform="rotate(-0 155.94874 116.525837)">Reject</text>
   </g>
   <g id="text_12">
    <text style="font-weight: 700; font-size: 5.6px; font-family: 'Arial', 'Helvetica', 'Liberation Sans', sans-serif; text-anchor: middle; fill: #222222" x="270.525472" y="52.464859" transform="rotate(-0 270.525472 52.464859)">all distinctions + policy must hold</text>
   </g>
   <g id="text_13">
    <text style="font-weight: 700; font-size: 5.7px; font-family: 'Arial', 'Helvetica', 'Liberation Sans', sans-serif; text-anchor: start; fill: #b35806" x="230.32311" y="63.299701" transform="rotate(-0 230.32311 63.299701)">D_C</text>
   </g>
   <g id="text_14">
    <text style="font-size: 5.5px; font-family: 'Arial', 'Helvetica', 'Liberation Sans', sans-serif; text-anchor: start; fill: #222222" x="248.414173" y="63.210592" transform="rotate(-0 248.414173 63.210592)">candidate + context</text>
   </g>
   <g id="text_15">
    <text style="font-weight: 700; font-size: 5.7px; font-family: 'Arial', 'Helvetica', 'Liberation Sans', sans-serif; text-anchor: start; fill: #b35806" x="230.32311" y="74.182718" transform="rotate(-0 230.32311 74.182718)">D_V</text>
   </g>
   <g id="text_16">
    <text style="font-size: 5.5px; font-family: 'Arial', 'Helvetica', 'Liberation Sans', sans-serif; text-anchor: start; fill: #222222" x="248.414173" y="74.128343" transform="rotate(-0 248.414173 74.128343)">x_c ↔ x_a attribution</text>
   </g>
   <g id="text_17">
    <text style="font-weight: 700; font-size: 5.7px; font-family: 'Arial', 'Helvetica', 'Liberation Sans', sans-serif; text-anchor: start; fill: #b35806" x="230.32311" y="85.100469" transform="rotate(-0 230.32311 85.100469)">D_F</text>
   </g>
   <g id="text_18">
    <text style="font-size: 5.5px; font-family: 'Arial', 'Helvetica', 'Liberation Sans', sans-serif; text-anchor: start; fill: #222222" x="248.414173" y="85.046094" transform="rotate(-0 248.414173 85.046094)">current pre-version</text>
   </g>
   <g id="text_19">
    <text style="font-weight: 700; font-size: 5.7px; font-family: 'Arial', 'Helvetica', 'Liberation Sans', sans-serif; text-anchor: start; fill: #b35806" x="230.32311" y="96.01822" transform="rotate(-0 230.32311 96.01822)">D_B</text>
   </g>
   <g id="text_20">
    <text style="font-size: 5.5px; font-family: 'Arial', 'Helvetica', 'Liberation Sans', sans-serif; text-anchor: start; fill: #222222" x="248.414173" y="95.963845" transform="rotate(-0 248.414173 95.963845)">complete batch</text>
   </g>
   <g id="text_21">
    <text style="font-weight: 700; font-size: 5.7px; font-family: 'Arial', 'Helvetica', 'Liberation Sans', sans-serif; text-anchor: start; fill: #b35806" x="230.32311" y="106.970706" transform="rotate(-0 230.32311 106.970706)">D_S</text>
   </g>
   <g id="text_22">
    <text style="font-size: 5.5px; font-family: 'Arial', 'Helvetica', 'Liberation Sans', sans-serif; text-anchor: start; fill: #222222" x="248.414173" y="106.881597" transform="rotate(-0 248.414173 106.881597)">total source relation</text>
   </g>
   <g id="text_23">
    <text style="font-weight: 700; font-size: 5.8px; font-family: 'Arial', 'Helvetica', 'Liberation Sans', sans-serif; text-anchor: middle; fill: #222222" x="270.525472" y="120.118225" transform="rotate(-0 270.525472 120.118225)">one version CAS</text>
   </g>
   <g id="text_24">
    <text style="font-weight: 700; font-size: 6.1px; font-family: 'Arial', 'Helvetica', 'Liberation Sans', sans-serif; fill: #222222" transform="translate(352.492643 66.541413)">Record v+1</text>
    <text style="font-weight: 700; font-size: 6.1px; font-family: 'Arial', 'Helvetica', 'Liberation Sans', sans-serif; fill: #222222" transform="translate(345.290354 72.766415)">complete values</text>
    <text style="font-weight: 700; font-size: 6.1px; font-family: 'Arial', 'Helvetica', 'Liberation Sans', sans-serif; fill: #222222" transform="translate(344.616971 78.991418)">total source map</text>
   </g>
   <g id="text_25">
    <text style="font-size: 5.4px; font-family: 'Arial', 'Helvetica', 'Liberation Sans', sans-serif; text-anchor: middle; fill: #222222" x="369.02126" y="111.061764" transform="rotate(-0 369.02126 111.061764)">audit + reverse trace</text>
   </g>
   <g id="text_26">
    <text style="font-weight: 700; font-size: 5.9px; font-family: 'Arial', 'Helvetica', 'Liberation Sans', sans-serif; text-anchor: middle; fill: #b2182b" x="254.444528" y="164.975753" transform="rotate(-0 254.444528 164.975753)">Reject or failed check → whole batch rejected; authoritative state stutters</text>
   </g>
   <g id="text_27">
    <text style="font-size: 5.2px; font-family: 'Arial', 'Helvetica', 'Liberation Sans', sans-serif; text-anchor: end; fill: #4d4d4d" x="399.173031" y="181.863459" transform="rotate(-0 399.173031 181.863459)">authorization records responsibility, not factual truth</text>
   </g>
  </g>
 </g>
 <defs>
  <clipPath id="pf3ccc7dcc6">
   <rect x="7.2" y="7.2" width="402.023622" height="178.979528"/>
  </clipPath>
 </defs>
</svg>
