<?xml version="1.0" encoding="utf-8" standalone="no"?>
<!DOCTYPE svg PUBLIC "-//W3C//DTD SVG 1.1//EN"
  "http://www.w3.org/Graphics/SVG/1.1/DTD/svg11.dtd">
<svg xmlns:xlink="http://www.w3.org/1999/xlink" width="401.725984pt" height="366.349606pt" viewBox="0 0 401.725984 366.349606" xmlns="http://www.w3.org/2000/svg" version="1.1">
 <metadata>
  <rdf:RDF xmlns:dc="http://purl.org/dc/elements/1.1/" xmlns:cc="http://creativecommons.org/ns#" xmlns:rdf="http://www.w3.org/1999/02/22-rdf-syntax-ns#">
   <cc:Work>
    <dc:type rdf:resource="http://purl.org/dc/dcmitype/StillImage"/>
    <dc:date>2026-09-27T01:56:13.107491</dc:date>
    <dc:format>image/svg+xml</dc:format>
    <dc:creator>
     <cc:Agent>
      <dc:title>Matplotlib v3.10.8, https://matplotlib.org/</dc:title>
     </cc:Agent>
    </dc:creator>
   </cc:Work>
  </rdf:RDF>
 </metadata>
 <defs>
  <style type="text/css">*{stroke-linejoin: round; stroke-linecap: butt}</style>
 </defs>
 <g id="figure_1">
  <g id="patch_1">
   <path d="M 0 366.349606 
L 401.725984 366.349606 
L 401.725984 0 
L 0 0 
z
" style="fill: #ffffff"/>
  </g>
  <g id="axes_1">
   <g id="patch_2">
    <path d="M 17.657802 180.007257 
L 188.468561 180.007257 
Q 195.440428 180.007257 195.440428 173.672164 
L 195.440428 53.657348 
Q 195.440428 47.322255 188.468561 47.322255 
L 17.657802 47.322255 
Q 10.685934 47.322255 10.685934 53.657348 
L 10.685934 173.672164 
Q 10.685934 180.007257 17.657802 180.007257 
z
" clip-path="url(#p71b5d2493e)" style="fill: #fafcff; stroke: #c8ddec; stroke-width: 0.8; stroke-linejoin: miter"/>
   </g>
   <g id="patch_3">
    <path d="M 213.257424 180.007257 
L 384.068183 180.007257 
Q 391.04005 180.007257 391.04005 173.672164 
L 391.04005 53.657348 
Q 391.04005 47.322255 384.068183 47.322255 
L 213.257424 47.322255 
Q 206.285556 47.322255 206.285556 53.657348 
L 206.285556 173.672164 
Q 206.285556 180.007257 213.257424 180.007257 
z
" clip-path="url(#p71b5d2493e)" style="fill: #fafcff; stroke: #c8ddec; stroke-width: 0.8; stroke-linejoin: miter"/>
   </g>
   <g id="patch_4">
    <path d="M 17.657802 321.842948 
L 188.468561 321.842948 
Q 195.440428 321.842948 195.440428 315.507855 
L 195.440428 195.493039 
Q 195.440428 189.157946 188.468561 189.157946 
L 17.657802 189.157946 
Q 10.685934 189.157946 10.685934 195.493039 
L 10.685934 315.507855 
Q 10.685934 321.842948 17.657802 321.842948 
z
" clip-path="url(#p71b5d2493e)" style="fill: #fafcff; stroke: #c8ddec; stroke-width: 0.8; stroke-linejoin: miter"/>
   </g>
   <g id="patch_5">
    <path d="M 213.257424 321.842948 
L 384.068183 321.842948 
Q 391.04005 321.842948 391.04005 315.507855 
L 391.04005 195.493039 
Q 391.04005 189.157946 384.068183 189.157946 
L 213.257424 189.157946 
Q 206.285556 189.157946 206.285556 195.493039 
L 206.285556 315.507855 
Q 206.285556 321.842948 213.257424 321.842948 
z
" clip-path="url(#p71b5d2493e)" style="fill: #fafcff; stroke: #c8ddec; stroke-width: 0.8; stroke-linejoin: miter"/>
   </g>
   <g id="patch_6">
    <path d="M 24.242343 171.560466 
L 180.722041 171.560466 
Q 186.144605 171.560466 186.144605 166.633172 
L 186.144605 157.834431 
Q 186.144605 152.907137 180.722041 152.907137 
L 24.242343 152.907137 
Q 18.81978 152.907137 18.81978 157.834431 
L 18.81978 166.633172 
Q 18.81978 171.560466 24.242343 171.560466 
z
" clip-path="url(#p71b5d2493e)" style="fill: #fff3e1; stroke: #df8a23; stroke-width: 0.85; stroke-linejoin: miter"/>
   </g>
   <g id="patch_7">
    <path d="M 221.003943 114.54463 
L 378.645619 114.54463 
Q 384.068183 114.54463 384.068183 109.617335 
L 384.068183 84.276964 
Q 384.068183 79.349669 378.645619 79.349669 
L 221.003943 79.349669 
Q 215.58138 79.349669 215.58138 84.276964 
L 215.58138 109.617335 
Q 215.58138 114.54463 221.003943 114.54463 
z
" clip-path="url(#p71b5d2493e)" style="fill: #ecf6ff; stroke: #1687df; stroke-width: 0.85; stroke-linejoin: miter"/>
   </g>
   <g id="patch_8">
    <path d="M 299.243792 115.841929 
Q 299.243792 119.824558 299.243792 122.521448 
" clip-path="url(#p71b5d2493e)" style="fill: none; stroke: #1687df; stroke-width: 1.15; stroke-linecap: round"/>
    <path d="M 301.043792 118.921448 
L 299.243792 122.521448 
L 297.443792 118.921448 
z
" clip-path="url(#p71b5d2493e)" style="fill: #1687df; stroke: #1687df; stroke-width: 1.15; stroke-linecap: round"/>
   </g>
   <g id="patch_9">
    <path d="M 221.003943 154.666885 
L 378.645619 154.666885 
Q 384.068183 154.666885 384.068183 149.739591 
L 384.068183 130.734312 
Q 384.068183 125.807017 378.645619 125.807017 
L 221.003943 125.807017 
Q 215.58138 125.807017 215.58138 130.734312 
L 215.58138 149.739591 
Q 215.58138 154.666885 221.003943 154.666885 
z
" clip-path="url(#p71b5d2493e)" style="fill: #ecf6ff; stroke: #1687df; stroke-width: 0.85; stroke-linejoin: miter"/>
   </g>
   <g id="patch_10">
    <path d="M 24.242343 272.921953 
L 93.96102 272.921953 
Q 99.383584 272.921953 99.383584 267.994658 
L 99.383584 235.263345 
Q 99.383584 230.33605 93.96102 230.33605 
L 24.242343 230.33605 
Q 18.81978 230.33605 18.81978 235.263345 
L 18.81978 267.994658 
Q 18.81978 272.921953 24.242343 272.921953 
z
" clip-path="url(#p71b5d2493e)" style="fill: #fff3e1; stroke: #df8a23; stroke-width: 0.85; stroke-linejoin: miter"/>
   </g>
   <g id="patch_11">
    <path d="M 111.778016 272.921953 
L 181.496693 272.921953 
Q 186.919257 272.921953 186.919257 267.994658 
L 186.919257 235.263345 
Q 186.919257 230.33605 181.496693 230.33605 
L 111.778016 230.33605 
Q 106.355452 230.33605 106.355452 235.263345 
L 106.355452 267.994658 
Q 106.355452 272.921953 111.778016 272.921953 
z
" clip-path="url(#p71b5d2493e)" style="fill: #ecf6ff; stroke: #1687df; stroke-width: 0.85; stroke-linejoin: miter"/>
   </g>
   <g id="patch_12">
    <path d="M 221.003943 262.715414 
L 378.645619 262.715414 
Q 384.068183 262.715414 384.068183 257.78812 
L 384.068183 223.297058 
Q 384.068183 218.369764 378.645619 218.369764 
L 221.003943 218.369764 
Q 215.58138 218.369764 215.58138 223.297058 
L 215.58138 257.78812 
Q 215.58138 262.715414 221.003943 262.715414 
z
" clip-path="url(#p71b5d2493e)" style="fill: #fff3e1; stroke: #df8a23; stroke-width: 0.85; stroke-linejoin: miter"/>
   </g>
   <g id="patch_13">
    <path d="M 221.003943 307.764964 
L 378.645619 307.764964 
Q 384.068183 307.764964 384.068183 302.837669 
L 384.068183 280.664844 
Q 384.068183 275.73755 378.645619 275.73755 
L 221.003943 275.73755 
Q 215.58138 275.73755 215.58138 280.664844 
L 215.58138 302.837669 
Q 215.58138 307.764964 221.003943 307.764964 
z
" clip-path="url(#p71b5d2493e)" style="fill: #ecf6ff; stroke: #1687df; stroke-width: 0.85; stroke-linejoin: miter"/>
   </g>
   <g id="line2d_1">
    <path d="M 13.397216 340.496277 
L 388.328769 340.496277 
" clip-path="url(#p71b5d2493e)" style="fill: none; stroke: #1687df; stroke-width: 1.1; stroke-linecap: square"/>
   </g>
   <g id="text_1">
    <text style="font-weight: 700; font-size: 12px; font-family: 'Arial', 'Helvetica', 'Liberation Sans', sans-serif; text-anchor: start; fill: #102e65" x="12.622564" y="19.308871" transform="rotate(-0 12.622564 19.308871)">From admission relation to executable evidence</text>
   </g>
   <g id="text_2">
    <text style="font-size: 8px; font-family: 'Arial', 'Helvetica', 'Liberation Sans', sans-serif; fill: #18334e" transform="translate(13.397216 34.844626)">Each evidence layer answers a different question.</text>
    <text style="font-size: 8px; font-family: 'Arial', 'Helvetica', 'Liberation Sans', sans-serif; fill: #18334e" transform="translate(13.397216 43.516876)">Constructed cases and timed calls keep separate denominators.</text>
   </g>
   <g id="text_3">
    <text style="font-weight: 700; font-size: 13px; font-family: 'Arial', 'Helvetica', 'Liberation Sans', sans-serif; text-anchor: start; fill: #102e65" x="18.432454" y="65.778101" transform="rotate(-0 18.432454 65.778101)">a</text>
   </g>
   <g id="text_4">
    <text style="font-weight: 700; font-size: 9px; font-family: 'Arial', 'Helvetica', 'Liberation Sans', sans-serif; text-anchor: start; fill: #102e65" x="32.376189" y="64.674724" transform="rotate(-0 32.376189 64.674724)">Five distinguishing classes</text>
   </g>
   <g id="text_5">
    <text style="font-weight: 700; font-size: 13px; font-family: 'Arial', 'Helvetica', 'Liberation Sans', sans-serif; text-anchor: start; fill: #102e65" x="214.032076" y="65.778101" transform="rotate(-0 214.032076 65.778101)">b</text>
   </g>
   <g id="text_6">
    <text style="font-weight: 700; font-size: 9px; font-family: 'Arial', 'Helvetica', 'Liberation Sans', sans-serif; text-anchor: start; fill: #102e65" x="227.975811" y="64.784412" transform="rotate(-0 227.975811 64.784412)">Check relational persistence</text>
   </g>
   <g id="text_7">
    <text style="font-weight: 700; font-size: 13px; font-family: 'Arial', 'Helvetica', 'Liberation Sans', sans-serif; text-anchor: start; fill: #102e65" x="18.432454" y="207.613792" transform="rotate(-0 18.432454 207.613792)">c</text>
   </g>
   <g id="text_8">
    <text style="font-weight: 700; font-size: 9px; font-family: 'Arial', 'Helvetica', 'Liberation Sans', sans-serif; text-anchor: start; fill: #102e65" x="32.376189" y="206.510416" transform="rotate(-0 32.376189 206.510416)">Isolate the binding policy</text>
   </g>
   <g id="text_9">
    <text style="font-weight: 700; font-size: 13px; font-family: 'Arial', 'Helvetica', 'Liberation Sans', sans-serif; text-anchor: start; fill: #102e65" x="214.032076" y="207.613792" transform="rotate(-0 214.032076 207.613792)">d</text>
   </g>
   <g id="text_10">
    <text style="font-weight: 700; font-size: 9px; font-family: 'Arial', 'Helvetica', 'Liberation Sans', sans-serif; text-anchor: start; fill: #102e65" x="227.975811" y="206.510416" transform="rotate(-0 227.975811 206.510416)">Locate review and cost boundaries</text>
   </g>
   <g id="text_11">
    <!-- $D_C$ -->
    <g style="fill: #1687df" transform="translate(27.340951 87.406563)">
     <text>
      <tspan x="0" y="-0.171875" style="font-style: oblique; font-size: 8px; font-family: 'DejaVu Sans'; fill: #1687df">D</tspan>
      <tspan x="6.160156" y="1.140625" style="font-style: oblique; font-size: 5.6px; font-family: 'DejaVu Sans'; fill: #1687df">C</tspan>
     </text>
    </g>
   </g>
   <g id="text_12">
    <text style="font-size: 7.7px; font-family: 'Arial', 'Helvetica', 'Liberation Sans', sans-serif; text-anchor: start; fill: #18334e" x="49.805858" y="87.278266" transform="rotate(-0 49.805858 87.278266)">candidate identity + context</text>
   </g>
   <g id="text_13">
    <!-- $D_V$ -->
    <g style="fill: #1687df" transform="translate(27.340951 102.540396)">
     <text>
      <tspan x="0" y="-0.171875" style="font-style: oblique; font-size: 8px; font-family: 'DejaVu Sans'; fill: #1687df">D</tspan>
      <tspan x="6.160156" y="1.140625" style="font-style: oblique; font-size: 5.6px; font-family: 'DejaVu Sans'; fill: #1687df">V</tspan>
     </text>
    </g>
   </g>
   <g id="text_14">
    <text style="font-size: 7.7px; font-family: 'Arial', 'Helvetica', 'Liberation Sans', sans-serif; text-anchor: start; fill: #18334e" x="49.805858" y="102.504138" transform="rotate(-0 49.805858 102.504138)">proposal / authorized value roles</text>
   </g>
   <g id="text_15">
    <!-- $D_F$ -->
    <g style="fill: #1687df" transform="translate(27.340951 117.674229)">
     <text>
      <tspan x="0" y="-0.171875" style="font-style: oblique; font-size: 8px; font-family: 'DejaVu Sans'; fill: #1687df">D</tspan>
      <tspan x="6.160156" y="1.140625" style="font-style: oblique; font-size: 5.6px; font-family: 'DejaVu Sans'; fill: #1687df">F</tspan>
     </text>
    </g>
   </g>
   <g id="text_16">
    <text style="font-size: 7.7px; font-family: 'Arial', 'Helvetica', 'Liberation Sans', sans-serif; text-anchor: start; fill: #18334e" x="49.805858" y="117.637971" transform="rotate(-0 49.805858 117.637971)">fresh predecessor</text>
   </g>
   <g id="text_17">
    <!-- $D_B$ -->
    <g style="fill: #1687df" transform="translate(27.340951 132.808062)">
     <text>
      <tspan x="0" y="-0.171875" style="font-style: oblique; font-size: 8px; font-family: 'DejaVu Sans'; fill: #1687df">D</tspan>
      <tspan x="6.160156" y="1.140625" style="font-style: oblique; font-size: 5.6px; font-family: 'DejaVu Sans'; fill: #1687df">B</tspan>
     </text>
    </g>
   </g>
   <g id="text_18">
    <text style="font-size: 7.7px; font-family: 'Arial', 'Helvetica', 'Liberation Sans', sans-serif; text-anchor: start; fill: #18334e" x="49.805858" y="132.724882" transform="rotate(-0 49.805858 132.724882)">one complete successor</text>
   </g>
   <g id="text_19">
    <!-- $D_S$ -->
    <g style="fill: #1687df" transform="translate(27.340951 147.941895)">
     <text>
      <tspan x="0" y="-0.171875" style="font-style: oblique; font-size: 8px; font-family: 'DejaVu Sans'; fill: #1687df">D</tspan>
      <tspan x="6.160156" y="1.140625" style="font-style: oblique; font-size: 5.6px; font-family: 'DejaVu Sans'; fill: #1687df">S</tspan>
     </text>
    </g>
   </g>
   <g id="text_20">
    <text style="font-size: 7.7px; font-family: 'Arial', 'Helvetica', 'Liberation Sans', sans-serif; text-anchor: start; fill: #18334e" x="49.805858" y="147.858715" transform="rotate(-0 49.805858 147.858715)">total field-source attribution</text>
   </g>
   <g id="text_21">
    <text style="font-size: 7px; font-family: 'Arial', 'Helvetica', 'Liberation Sans', sans-serif; text-anchor: middle; fill: #18334e" x="102.482192" y="164.047239" transform="rotate(-0 102.482192 164.047239)">Omit a class: equal projections, distinct outcomes.</text>
   </g>
   <g id="text_22">
    <text style="font-weight: 700; font-size: 8px; font-family: 'Arial', 'Helvetica', 'Liberation Sans', sans-serif; text-anchor: middle; fill: #1687df" x="299.824781" y="92.619229" transform="rotate(-0 299.824781 92.619229)">Bounded relational analysis</text>
   </g>
   <g id="text_23">
    <text style="font-size: 7.7px; font-family: 'Arial', 'Helvetica', 'Liberation Sans', sans-serif; text-anchor: middle; fill: #18334e" x="299.824781" y="103.843897" transform="rotate(-0 299.824781 103.843897)">72 declared command outcomes</text>
   </g>
   <g id="text_24">
    <text style="font-weight: 700; font-size: 8px; font-family: 'Arial', 'Helvetica', 'Liberation Sans', sans-serif; text-anchor: middle; fill: #1687df" x="299.824781" y="137.302751" transform="rotate(-0 299.824781 137.302751)">Persisted-state projection</text>
   </g>
   <g id="text_25">
    <text style="font-size: 7.7px; font-family: 'Arial', 'Helvetica', 'Liberation Sans', sans-serif; text-anchor: middle; fill: #18334e" x="299.824781" y="146.023046" transform="rotate(-0 299.824781 146.023046)">9 intended · 20 mapping mutants</text>
   </g>
   <g id="text_26">
    <text style="font-size: 7.2px; font-family: 'Arial', 'Helvetica', 'Liberation Sans', sans-serif; text-anchor: middle; fill: #18765a" x="299.631118" y="165.225373" transform="rotate(-0 299.631118 165.225373)">35 cases: admission, rejection, diagnosis</text>
   </g>
   <g id="text_27">
    <text style="font-size: 7.5px; font-family: 'Arial', 'Helvetica', 'Liberation Sans', sans-serif; text-anchor: middle; fill: #18334e" x="102.094866" y="222.241209" transform="rotate(-0 102.094866 222.241209)">E1: 15 inputs × 11 families × 3 mechanisms</text>
   </g>
   <g id="text_28">
    <text style="font-weight: 700; font-size: 8px; font-family: 'Arial', 'Helvetica', 'Liberation Sans', sans-serif; text-anchor: middle; fill: #df8a23" x="59.101682" y="245.723823" transform="rotate(-0 59.101682 245.723823)">Context journal</text>
   </g>
   <g id="text_29">
    <text style="font-size: 7.7px; font-family: 'Arial', 'Helvetica', 'Liberation Sans', sans-serif; fill: #18334e" transform="translate(22.292073 254.959483)">15 instance violations</text>
    <text style="font-size: 7.7px; font-family: 'Arial', 'Helvetica', 'Liberation Sans', sans-serif; fill: #18334e" transform="translate(19.512252 264.514702)">60 ambiguous answers</text>
   </g>
   <g id="text_30">
    <text style="font-weight: 700; font-size: 7.9px; font-family: 'Arial', 'Helvetica', 'Liberation Sans', sans-serif; text-anchor: middle; fill: #1687df" x="146.637354" y="245.701652" transform="rotate(-0 146.637354 245.701652)">Exact + reference</text>
   </g>
   <g id="text_31">
    <text style="font-size: 7.7px; font-family: 'Arial', 'Helvetica', 'Liberation Sans', sans-serif; fill: #18334e" transform="translate(111.968706 254.959483)">0 instance violations</text>
    <text style="font-size: 7.7px; font-family: 'Arial', 'Helvetica', 'Liberation Sans', sans-serif; fill: #18334e" transform="translate(109.188886 264.514702)">0 ambiguous answers</text>
   </g>
   <g id="text_32">
    <text style="font-weight: 700; font-size: 7.5px; font-family: 'Arial', 'Helvetica', 'Liberation Sans', sans-serif; fill: #102e65" transform="translate(37.719085 285.681254)">Equal-valued candidate substitution</text>
    <text style="font-weight: 700; font-size: 7.5px; font-family: 'Arial', 'Helvetica', 'Liberation Sans', sans-serif; fill: #102e65" transform="translate(73.334124 293.603363)">is the separator.</text>
   </g>
   <g id="text_33">
    <text style="font-size: 7.5px; font-family: 'Arial', 'Helvetica', 'Liberation Sans', sans-serif; fill: #18334e" transform="translate(57.073772 307.593536)">Under value/context policy:</text>
    <text style="font-size: 7.5px; font-family: 'Arial', 'Helvetica', 'Liberation Sans', sans-serif; fill: #18334e" transform="translate(47.480218 315.640801)">exact binding adds 15 rejections.</text>
   </g>
   <g id="text_34">
    <text style="font-weight: 700; font-size: 8px; font-family: 'Arial', 'Helvetica', 'Liberation Sans', sans-serif; text-anchor: middle; fill: #df8a23" x="299.824781" y="234.254016" transform="rotate(-0 299.824781 234.254016)">E2: 60 browser cases</text>
   </g>
   <g id="text_35">
    <text style="font-size: 7.7px; font-family: 'Arial', 'Helvetica', 'Liberation Sans', sans-serif; fill: #18334e" transform="translate(236.270305 244.183657)">request substitutions admitted: 9 → 0</text>
    <text style="font-size: 7.7px; font-family: 'Arial', 'Helvetica', 'Liberation Sans', sans-serif; fill: #18334e" transform="translate(243.330242 253.738876)">display-only substitutions: 3 each</text>
   </g>
   <g id="text_36">
    <text style="font-weight: 700; font-size: 8px; font-family: 'Arial', 'Helvetica', 'Liberation Sans', sans-serif; text-anchor: middle; fill: #1687df" x="299.824781" y="288.172696" transform="rotate(-0 299.824781 288.172696)">E3: 22,400 timed observations</text>
   </g>
   <g id="text_37">
    <text style="font-size: 7.7px; font-family: 'Arial', 'Helvetica', 'Liberation Sans', sans-serif; text-anchor: middle; fill: #18334e" x="299.824781" y="298.109522" transform="rotate(-0 299.824781 298.109522)">admission · same-verifier trace access</text>
   </g>
   <g id="text_38">
    <text style="font-size: 7px; font-family: 'Arial', 'Helvetica', 'Liberation Sans', sans-serif; text-anchor: middle; fill: #18334e" x="299.243792" y="316.211754" transform="rotate(-0 299.243792 316.211754)">Storage footprint measured separately.</text>
   </g>
   <g id="text_39">
    <text style="font-weight: 700; font-size: 8px; font-family: 'Arial', 'Helvetica', 'Liberation Sans', sans-serif; fill: #102e65" transform="translate(109.063617 348.146991)">conditional characterization → persisted checks</text>
    <text style="font-weight: 700; font-size: 8px; font-family: 'Arial', 'Helvetica', 'Liberation Sans', sans-serif; fill: #102e65" transform="translate(105.953617 356.597241)">→ policy separator → review and cost boundaries</text>
   </g>
  </g>
 </g>
 <defs>
  <clipPath id="p71b5d2493e">
   <rect x="7.2" y="7.2" width="387.325984" height="351.949606"/>
  </clipPath>
 </defs>
</svg>
